<svg xmlns="http://www.w3.org/2000/svg" viewBox="0 0 64 64" id="cinema-tickets"><path fill="#2a3a3e" d="M13.62 47.34v-4.06l-6.83-13.4c-.12-.25-.15-.53-.06-.79.09-.27.28-.49.52-.61l31.83-16.19c.52-.26 1.14-.05 1.4.46l7.61 14.94c.12.25.15.53.06.79-.08.27-.27.49-.52.61l-4.78 2.43h3.52l7.1-3.71-.81-1.54c-.77.2-1.6.18-2.38-.07a4.348 4.348 0 0 1-2.6-2.17c-.97-1.84-.5-4.05 1-5.36l-1.16-2.24c-1.93.48-4.02-.4-4.98-2.24a4.454 4.454 0 0 1-.3-3.36c.25-.79.71-1.47 1.31-2l-.75-1.45L0 29.75l.8 1.54c1.93-.48 4.02.4 4.97 2.23a4.4 4.4 0 0 1-1.01 5.37l1.18 2.24c1.92-.48 4.01.39 4.96 2.23.55 1.05.66 2.25.31 3.37-.25.79-.71 1.47-1.31 2l.75 1.43 3.41-1.78-.15-.34a.956.956 0 0 1-.29-.7z"></path><path fill="#2a3a3e" d="M16.99 39.6c0-1.29-1.05-2.34-2.34-2.34-.57 0-1.04-.47-1.04-1.04v-3.69c0-.57.47-1.04 1.04-1.04h23.62l7.48-3.81-6.65-13.07L9.11 29.86l6.11 12.01a2.336 2.336 0 0 0 1.77-2.27z"></path><path fill="#2a3a3e" d="M64 35.2v-1.62H15.7v1.73c1.94.47 3.37 2.21 3.37 4.29s-1.43 3.82-3.37 4.29v2.53c.64.15 1.21.46 1.71.85.04.03.08.05.11.09.94.81 1.55 2 1.55 3.34 0 2.08-1.43 3.82-3.37 4.29v1.62H64v-1.73c-1.94-.47-3.37-2.21-3.37-4.29s1.43-3.82 3.37-4.29v-2.52a4.417 4.417 0 0 1-3.37-4.29c0-2.08 1.43-3.82 3.37-4.29zm-5.26 18.28c0 .57-.46 1.04-1.04 1.04H21.99c-.57 0-1.04-.47-1.04-1.04V36.72c0-.57.47-1.04 1.04-1.04H57.7c.58 0 1.04.47 1.04 1.04v16.76z"></path><path fill="#2a3a3e" d="M23.03 52.45h33.64V37.76H23.03v14.69zm26.35-10.32c.01-.07.02-.12.03-.18.02-.04.04-.07.06-.08a.14.14 0 0 1 .09-.03h4.6c.03 0 .05.01.08.03.02.01.04.04.06.08.02.05.03.1.04.18 0 .07.01.16.01.26 0 .09-.01.18-.01.25-.01.06-.02.12-.04.17-.02.04-.04.07-.06.09-.03.02-.05.03-.08.03h-1.64v5.26c0 .03-.01.06-.03.08-.02.03-.05.05-.1.07-.05.01-.12.03-.21.04-.08.02-.18.02-.32.02-.12 0-.23 0-.32-.01-.08-.01-.15-.03-.2-.04-.05-.02-.09-.04-.11-.07a.114.114 0 0 1-.03-.08v-5.26h-1.63a.14.14 0 0 1-.09-.03.349.349 0 0 1-.06-.09c-.01-.04-.02-.1-.03-.17-.01-.07-.01-.16-.01-.25-.01-.12-.01-.2 0-.27zm-4.4.12c0-.15.03-.25.11-.31.07-.07.17-.1.28-.1h3.26c.03 0 .05.01.07.02.03.02.05.05.06.09.02.04.03.09.04.17.01.06.01.15.01.25 0 .09 0 .17-.01.24a.75.75 0 0 1-.04.16c-.01.04-.03.07-.06.09-.02.01-.04.02-.07.02H46.3v1.6h1.97c.03 0 .06.01.08.02.03.02.05.05.06.09.02.03.03.08.04.16.01.06.01.15.01.24s0 .18-.01.24a.75.75 0 0 1-.04.16c-.01.04-.03.06-.06.08-.02.02-.05.03-.08.03H46.3v1.84h2.36c.02 0 .05.01.08.03.02.01.04.04.06.08.01.04.02.09.03.16.01.07.01.16.01.25s0 .18-.01.25c-.01.06-.02.11-.03.16-.02.04-.04.07-.06.08a.16.16 0 0 1-.08.03h-3.28c-.11 0-.21-.03-.28-.09-.08-.07-.11-.18-.11-.32v-5.72zm-5.66-.23c0-.04.01-.07.03-.09.02-.03.06-.05.11-.07a2.88 2.88 0 0 1 .52-.05c.14 0 .24.01.32.02.09.01.16.02.21.03.05.02.08.04.1.07.02.02.03.05.03.09v2.78l1.91-2.77c.03-.05.05-.08.09-.11.03-.03.07-.05.12-.06.05-.02.12-.03.21-.04.08-.01.2-.01.32-.01.13 0 .25.01.33.02.09.01.16.02.21.04.05.01.09.04.11.06.02.03.03.06.03.09 0 .06-.02.11-.05.18-.02.06-.08.16-.17.29l-1.8 2.35 1.95 2.95c.08.13.12.23.13.28.02.04.03.08.03.1 0 .04-.01.07-.03.1-.02.02-.05.05-.1.06-.05.02-.12.04-.22.05-.09.01-.21.01-.34.01-.22 0-.37-.01-.48-.02-.09-.02-.16-.04-.2-.08a.346.346 0 0 1-.1-.11l-1.97-3.1v3.1c0 .03-.01.06-.03.09-.02.02-.05.05-.1.06-.05.02-.11.04-.21.05-.08.01-.19.01-.32.01-.12 0-.23 0-.32-.01a.83.83 0 0 1-.2-.05.227.227 0 0 1-.11-.06.161.161 0 0 1-.03-.09v-6.16zm-5.56 1.68c.16-.43.36-.79.62-1.08.27-.29.59-.52.96-.66.37-.16.79-.23 1.24-.23a2.96 2.96 0 0 1 .99.16c.15.04.27.1.38.17.11.06.2.11.25.17.04.04.07.08.09.11.01.03.02.06.03.11.01.04.02.1.03.17v.24c0 .09 0 .19-.01.26 0 .06-.01.12-.03.17-.02.04-.04.07-.06.09-.02.02-.05.03-.08.03-.05 0-.11-.03-.19-.08-.08-.06-.18-.12-.3-.2-.12-.07-.27-.15-.44-.2-.18-.06-.37-.09-.61-.09-.26 0-.49.05-.7.17-.2.1-.37.25-.52.45-.15.2-.25.44-.32.72-.07.28-.11.59-.11.94 0 .38.04.72.12 1 .07.28.19.51.33.7.15.18.32.31.53.4.21.09.45.13.7.13.24 0 .45-.03.61-.08.18-.05.32-.11.45-.19.12-.06.22-.12.3-.18.08-.06.15-.08.19-.08.03 0 .06.01.08.02.01.01.03.04.04.08.02.03.03.09.03.17.01.07.01.17.01.29v.21c-.01.06-.02.11-.03.16a.358.358 0 0 1-.11.2c-.04.04-.11.09-.22.16-.1.06-.24.11-.38.18-.16.05-.33.09-.53.13-.2.04-.4.05-.63.05-.46 0-.85-.06-1.21-.21-.36-.13-.66-.34-.92-.61-.25-.28-.45-.62-.57-1.03-.13-.42-.21-.89-.21-1.43-.02-.56.05-1.05.2-1.49zm-2.66-1.68c0-.04.01-.07.03-.09.02-.03.06-.05.11-.07a2.726 2.726 0 0 1 1.04 0c.05.02.09.04.11.07.02.02.03.05.03.09v6.17c0 .03-.01.06-.03.08-.02.03-.06.05-.11.07-.04.01-.11.03-.2.04-.08.01-.19.01-.32.01-.12 0-.24 0-.32-.01-.08-.01-.16-.03-.21-.04-.04-.02-.08-.04-.1-.07a.114.114 0 0 1-.03-.08v-6.17zm-5.76.11c.01-.07.02-.12.04-.18.02-.04.04-.07.06-.08.02-.02.05-.03.08-.03h4.6c.03 0 .06.01.08.03.03.01.05.04.07.08.01.05.02.1.03.18.01.07.01.16.01.26 0 .09 0 .18-.01.25-.01.06-.02.12-.03.17-.02.04-.04.07-.07.09-.02.02-.05.03-.08.03H28.5v5.26c0 .03-.01.06-.03.08-.02.03-.06.05-.11.07-.05.01-.11.03-.2.04-.09.01-.2.01-.32.01-.14 0-.24 0-.32-.01-.08-.01-.16-.03-.21-.04-.05-.02-.08-.04-.1-.07a.114.114 0 0 1-.03-.08v-5.26h-1.64c-.03 0-.06-.01-.08-.03a.349.349 0 0 1-.06-.09.607.607 0 0 1-.04-.17c0-.07-.01-.16-.01-.25-.02-.11-.01-.19-.01-.26z"></path></svg>