<svg xmlns="http://www.w3.org/2000/svg" enable-background="new -1095.842 -803.279 3000 3000" viewBox="-1095.842 -803.279 3000 3000" id="open-an-online-store"><path fill="#93E5B6" d="M478.474 1769.674h815.988c-21.536-38.867-67.301-26.817-116.57-27.854-9.208-29.056-34.726-28.447-89.696-19.499 69.641-63.509 47.913-125.902-73.539-85.234 138.723-188.854-76.325-232.016-108.082-235.793-40.015-4.773-223.961 24.642-126.465 221.304-118.11-49.02-150.422 8.922-61.284 110.871C633.67 1737.462 531.635 1756.166 478.474 1769.674zM-561.18 1769.674h825.262c-53.534-12.436-164.457-27.161-214.357-28.211-9.326-29.429-35.171-28.811-90.847-19.749 70.534-64.323 48.527-127.517-74.483-86.328 140.503-191.277-77.304-234.992-109.468-238.817-40.529-4.834-226.834 24.958-128.087 224.142-119.625-49.649-152.352 9.036-62.07 112.293C-501.479 1737.048-532.082 1747.169-561.18 1769.674z"></path><path fill="#DCF4E6" d="M1460.521,673.899c-1.624,15.762-4.299,31.334-8.025,46.619c-0.669,3.153-1.433,6.305-2.292,9.458
				c-13.853,51.492-39.073,100.022-73.846,144.923c-2.006,2.579-4.012,5.158-6.114,7.738
				c-237.971,295.099-891.698,426.934-1420.756,206.445c-4.872-2.006-9.744-4.108-14.617-6.209
				c-44.327-19.107-87.699-40.697-129.828-64.867C-398.346,901.169-530.85,741.631-599.633,573.685c0,0-0.096,0-0.096-0.096
				c-3.439-8.502-6.687-17.005-9.839-25.602C-716.756,257.76-636.222-52.338-404.556-208.151c2.675-1.911,5.445-3.726,8.311-5.445
				c58.084-37.64,125.339-65.726,201.287-81.584c17.196-3.63,34.009-6.305,50.632-8.216c3.153-0.477,6.305-0.764,9.458-1.05
				c245.9-24.839,428.176,124.383,577.11,282.202c2.293,2.389,4.49,4.777,6.687,7.07c50.633,53.88,97.252,108.62,141.388,157.341
				c2.101,2.389,4.299,4.777,6.4,7.165c101.455,111.391,189.058,189.727,277.999,153.138
				C1200.864,168.342,1503.892,252.123,1460.521,673.899z"></path><path fill="#DCF4E6" d="M874.733-123.892C763.941-273.495,597.242-111.154,697.098,35.329
				C796.954,181.812,1143.578,239.131,874.733-123.892z"></path><path fill="#FFF" d="M1452.496,720.518c-0.669,3.153-1.433,6.305-2.292,9.458
				c-210.744-70.216-574.722-112.346-1175.334,17.387c-375.633,81.011-660.51,32.195-846.607-145.209
				c-9.649-9.266-18.915-18.724-27.895-28.468c0,0-0.096,0-0.096-0.096c-3.439-8.502-6.687-17.005-9.839-25.602
				c13.852,16.431,28.66,32.098,44.423,47.193c183.709,175.111,465.624,223.163,837.914,142.82
				C874.43,608.172,1240.128,650.206,1452.496,720.518z"></path><path fill="#FFF" d="M1376.357 874.899c-2.006 2.579-4.012 5.158-6.114 7.738-202.624-98.303-504.315-150.941-904.595 26.271-196.51 87.03-368.468 143.968-516.161 180.174-4.872-2.006-9.744-4.108-14.617-6.209 149.89-35.92 325.383-93.335 526.956-182.658C866.501 720.9 1171.727 774.972 1376.357 874.899zM596.718 149.331c-82.349 80.916-198.23 147.788-361.017 173.009-31.43 4.777-62 7.261-91.711 7.261-108.906 0-205.872-32.672-289.176-97.443-142.63-110.913-219.438-297.105-259.37-440.309 2.675-1.911 5.445-3.726 8.311-5.445 39.359 142.152 115.212 328.058 256.886 438.207 104.035 80.82 229.659 110.531 373.627 88.272 160.685-24.934 274.846-90.947 356.049-170.716C592.419 144.554 594.616 146.942 596.718 149.331z"></path><path fill="#FFF" d="M448.929-15.176c-63.051,88.463-155.335,162.309-288.316,165.653h-6.114
				c-59.803,0-112.251-22.259-155.909-66.395c-87.03-87.89-125.817-250.008-142.917-387.479c3.153-0.477,6.305-0.764,9.458-1.05
				C-118.055-168.505-80.033-8.775,5.373,77.395c43.181,43.658,95.532,64.866,154.953,63.529
				c130.02-3.344,220.297-76.044,281.916-163.17C444.535-19.857,446.732-17.469,448.929-15.176z"></path><g><linearGradient id="a" x1="-248.987" x2="-248.987" y1="34.657" y2="-93.374" gradientUnits="userSpaceOnUse"><stop offset=".037" stop-color="#d4c95e"></stop><stop offset="1" stop-color="#ff9444"></stop></linearGradient><polygon fill="url(#a)" points="-248.986 -60.249 -362.75 -27.045 -248.986 50.475 -135.223 -27.045"></polygon><polygon fill="#009444" points="-248.986 -190.128 -362.75 -112.59 -248.986 -35.086 -135.223 -112.59"></polygon><polygon fill="#009444" points="-248.986 -35.036 -248.986 50.526 -362.7 -24.519 -362.7 -112.606"></polygon><polygon fill="#097C3A" points="-135.223 -112.606 -135.223 -24.519 -248.986 50.526 -248.986 -35.036"></polygon><polygon fill="#CDEEFF" points="-322.494 -77.916 -205.099 -160.886 -179.143 -143.202 -293.269 -65.252 -293.269 21.201 -322.494 2.015" opacity=".25"></polygon><polygon fill="#CDEEFF" points="-171.746 -80.195 -292.907 -159.813 -318.828 -142.113 -200.938 -67.531 -200.938 18.956 -171.746 -.247" opacity=".25"></polygon><path fill="#DBA12C" d="M-68.583-324.266c-1.272-1.123-171.355,195.164-171.355,195.164s67.796-212.006,66.21-212.551
			c-1.551-0.495-75.258,220.922-75.258,220.922s-73.691-221.417-75.259-220.922c-1.601,0.545,66.161,212.551,66.161,212.551
			s-170.051-196.287-171.305-195.164c-1.272,1.057-1.421,2.939-0.297,4.227l176.901,206.392c0.562,0.66,1.437,1.057,2.279,1.057
			c0.495,0,1.025-0.149,1.453-0.397c0.067-0.016,0.067-0.016,0.067-0.016s0.016,0,0.016,0.016c0.48,0.248,0.991,0.397,1.503,0.397
			c0.86,0,1.685-0.397,2.279-1.057L-68.27-320.038C-67.164-321.327-67.329-323.209-68.583-324.266z"></path><path fill="#DBA12C" d="M-65.446-318.85c-23.034-6.605-48.874-12.004-76.729-15.95c-21.25-2.989-43.672-5.151-66.97-6.291
			c-13.489-0.709-27.326-1.056-41.361-1.056c-14.034,0-27.838,0.347-41.361,1.056c-23.297,1.14-45.72,3.302-66.97,6.291
			c-27.854,3.947-53.695,9.345-76.728,15.95c8.09-95.122,87.873-169.753,185.059-169.753S-73.536-413.971-65.446-318.85z"></path><path fill="#F2CD33" d="M-250.506-488.603c-20.358 0-37.348 63.255-41.361 147.512-23.297 1.14-45.72 3.302-66.97 6.291C-349.871-422.145-304.795-488.603-250.506-488.603zM-142.175-334.8c-21.25-2.989-43.672-5.151-66.97-6.291-4.012-84.257-21.002-147.512-41.361-147.512C-196.216-488.603-151.141-422.145-142.175-334.8z"></path><g><path fill="#F2CD33" d="M-273.14-64.361l-41.196-41.543l-23.148,11.856l-79.255,78.561l5.548,5.647l41.162,41.51l5.564,5.613
				l79.238-78.594L-273.14-64.361z M-306.922-72.054c-2.427-2.461-2.377-6.408,0.049-8.802c2.444-2.46,6.357-2.46,8.817,0
				c2.427,2.461,2.427,6.424-0.033,8.833C-300.532-69.611-304.478-69.644-306.922-72.054z"></path><path fill="#DBA12C" d="M-363.886-5.118c.512-.495.908-.957 1.156-1.386.247-.429.38-.759.446-1.155.049-.331 0-.661-.115-.891-.1-.297-.297-.579-.529-.793-.545-.529-1.205-.693-2.047-.578-.843.148-2.031.594-3.649 1.403-.71.365-1.437.661-2.229.959-.743.264-1.503.462-2.279.495-.76.032-1.536-.067-2.295-.297-.776-.265-1.568-.777-2.279-1.486-.743-.727-1.272-1.57-1.585-2.412-.33-.858-.43-1.749-.33-2.708.082-.908.38-1.8.891-2.791.479-.907 1.189-1.882 2.081-2.724 1.09-1.09 2.113-1.915 3.153-2.476 1.007-.561 1.882-.925 2.691-1.155l1.816 3.83c-.677.247-1.387.545-2.114.891-.743.396-1.452.926-2.229 1.718-.858.858-1.387 1.601-1.503 2.195-.148.594.05 1.173.496 1.684.314.248.643.446.957.512.38.033.727.033 1.139-.066.396-.049.876-.247 1.321-.429.462-.165.941-.413 1.486-.661 1.139-.545 2.146-.957 3.038-1.254.974-.331 1.816-.495 2.625-.495.792 0 1.585.131 2.311.511.71.347 1.503.876 2.229 1.634 1.503 1.486 2.13 3.204 1.899 5.053-.215 1.882-1.354 3.814-3.484 5.944-.727.727-1.387 1.288-2.031 1.783-.627.446-1.238.859-1.816 1.156-.562.365-1.09.578-1.536.761-.446.164-.842.313-1.156.396l-1.833-3.848c.71-.214 1.535-.578 2.428-1.073C-365.818-3.368-364.877-4.127-363.886-5.118zM-341.348-22.124c-.776-.38-1.486-.76-2.312-1.123-.792-.396-1.552-.759-2.344-1.139l-6.241 6.242c.396.777.759 1.569 1.139 2.328.396.792.76 1.585 1.139 2.279l-3.715 3.715c-1.123-2.294-2.13-4.458-3.071-6.489-.892-1.948-1.734-3.864-2.526-5.68-.776-1.783-1.47-3.534-2.163-5.184-.644-1.669-1.255-3.336-1.833-4.953l3.451-3.402c1.602.561 3.236 1.222 4.921 1.832 1.684.644 3.418 1.371 5.201 2.164 1.816.759 3.699 1.601 5.73 2.509 1.981.959 4.111 1.965 6.439 3.055L-341.348-22.124zM-358.025-30.133c.132.297.347.71.595 1.288.231.579.545 1.205.842 1.899.347.694.677 1.553 1.073 2.378.396.891.792 1.783 1.255 2.708l4.557-4.523c-.941-.479-1.849-.876-2.691-1.272-.875-.411-1.667-.742-2.377-1.089-.743-.297-1.387-.595-1.932-.808C-357.249-29.819-357.678-30.034-358.025-30.133zM-327.875-41.739l3.088 3.087-10.65 10.617-15.999-15.95 3.616-3.567 12.863 12.863L-327.875-41.739zM-322.508-40.981l-15.967-15.916 10.815-10.783 3.005 3.022-7.182 7.167 3.12 3.136 6.39-6.39 2.923 2.972-6.39 6.357 3.831 3.832 7.761-7.695 3.022 3.005L-322.508-40.981z"></path></g><path fill="#CDEEFF" d="M-299.361-82.223c0.709-0.731,25.07-28.216,47.845-34.628c1.519-0.428,4.777,4.115,4.049,4.262
		c-20.636,4.144-49.547,31.214-50.215,32.36C-299.151-77.713-302.478-79.007-299.361-82.223z"></path></g><g><path fill="#2F627C" d="M3.469,1807.526c-42.53,0-77.13-34.599-77.13-77.13V136.92c0-42.53,34.6-77.134,77.13-77.134h801.375
			c42.53,0,77.134,34.604,77.134,77.134v1593.477c0,42.531-34.604,77.13-77.134,77.13H3.469z"></path><path fill="#CDEEFF" d="M3.469,1751.192c-11.466,0-20.795-9.33-20.795-20.796V136.92c0-11.47,9.33-20.8,20.795-20.8h801.375
			c11.47,0,20.799,9.33,20.799,20.8v1593.477c0,11.466-9.329,20.796-20.799,20.796H3.469z"></path><g><path fill="#097C3A" d="M691.196,221.527l95.954,60.304l1.001,2.324v0.066l1.501,3.414
				c11.679,25.682,57.316,47.535,101.621,47.535c23.944,0,41.546-6.284,50.474-16.119v-34.896l-1.419-2.254l-133.218-60.374H691.196
				z"></path><path fill="#FFC439" d="M707.698,335.161h42.438c33.118,0,52.85-29.8,44.41-49.383l-103.35-64.261H576.395l62.005,63.872
				C643.464,304.973,674.58,335.161,707.698,335.161z"></path><path fill="#097C3A" d="M461.583,221.541l19.623,65.438c2.237,25.962,40.566,48.212,85.344,48.212
				c44.887,0,77.374-25.006,70.661-50.967L576.4,221.541H461.583z"></path><path fill="#FFC439" d="M382.955,335.161h42.44c33.117,0,61.233-20.865,59.546-40.449l-23.36-73.196h-114.81l-22.387,69.118
				C322.697,310.216,349.838,335.161,382.955,335.161z"></path><path fill="#097C3A" d="M231.951,221.541l-67.218,69.481c-6.714,25.962,32.286,44.169,77.066,44.169
				c44.888,0,80.928-20.342,83.166-46.306l21.804-67.344H231.951z"></path><path fill="#FFC439" d="M58.212,335.161h42.439c33.118,0,59.018-23.586,64.082-43.168l67.223-70.477H117.158L5.044,291.951
				C-3.396,311.535,25.095,335.161,58.212,335.161z"></path><path fill="#097C3A" d="M-133.432,284.358v34.625c8.842,9.837,26.531,16.187,50.476,16.187
				c44.886,0,90.774-22.264,101.953-48.216l1.17-2.663v-0.071l0.999-2.39h0.084l95.875-60.304H-3.222L-131.931,281.9
				L-133.432,284.358z"></path><path fill="#009444" d="M788.152 281.9v96.978c0 34.695 34.457 62.899 76.84 62.899 42.466 0 76.756-28.204 76.756-62.899v-94.724l-1.419-2.254H788.152zM480.978 281.865V378.9c0 34.672 34.441 62.865 76.799 62.865 42.459 0 76.798-28.193 76.798-62.865v-97.034H480.978zM173.785 281.865V378.9c0 34.672 34.443 62.865 76.801 62.865 42.461 0 76.799-28.193 76.799-62.865v-97.034H173.785z"></path><path fill="#DBA12C" d="M634.575 281.83v83.79c0 42.035 34.383 76.11 76.797 76.11l0 0c42.413 0 76.796-34.075 76.796-76.11v-83.79H634.575zM327.385 365.62c0 42.035 34.383 76.11 76.797 76.11l0 0c42.411 0 76.796-34.075 76.796-76.11v-83.79H327.385V365.62zM20.192 365.62c0 42.035 34.384 76.11 76.797 76.11 42.415 0 76.798-34.075 76.798-76.11v-83.79H20.192V365.62z"></path><path fill="#009444" d="M-133.432,284.358v94.521c0,34.695,34.457,62.899,76.84,62.899c42.466,0,76.758-28.204,76.758-62.899
				V281.9h-152.097L-133.432,284.358z"></path><rect width="115.826" height="92.364" x="-2.941" y="129.163" fill="#009444"></rect><rect width="115.826" height="92.364" x="112.885" y="129.163" fill="#DBA12C"></rect><rect width="115.826" height="92.364" x="228.711" y="129.163" fill="#009444"></rect><rect width="115.826" height="92.364" x="344.537" y="129.163" fill="#DBA12C"></rect><rect width="115.826" height="92.364" x="460.363" y="129.163" fill="#009444"></rect><rect width="115.826" height="92.364" x="576.19" y="129.163" fill="#DBA12C"></rect><rect width="115.826" height="92.364" x="692.016" y="129.163" fill="#009444"></rect></g></g><g><rect width="10.514" height="93.389" x="585.695" y="860.845" fill="#11405C"></rect><rect width="10.515" height="93.389" x="203.793" y="860.845" fill="#11405C"></rect><path fill="#FFC439" d="M709.25 767.153v104.384H95.629V767.153c0-8.065 6.604-14.69 14.69-14.69h584.282C702.735 752.463 709.25 759.089 709.25 767.153zM95.629 1107.776V933.153h613.642v174.623c0 8.064-6.581 14.687-14.691 14.687H110.298C102.187 1122.463 95.629 1115.84 95.629 1107.776z"></path><g opacity=".35"><path fill="#DBA12C" d="M220.263 795.914c-.797-2.68-2.48-4.078-4.453-4.852-2.016-.689-4.343-.798-6.847-.445-5.671.777-7.976 2.771-7.577 5.585 1.683 11.831 45.844-1.84 49.878 26.742 2.548 18.237-11.391 29.227-32.971 32.263-20.762 2.925-36.05-7.269-38.552-21.405l24.658-3.478c.93 2.769 2.749 4.585 5.141 5.649 2.282.954 5.073 1.265 7.6.909 6.448-.909 10.414-3.589 9.883-7.267-1.683-11.944-45.756 2.613-49.941-27.409-2.351-16.682 10.877-27.121 30.531-29.888 21.847-3.103 33.344 6.623 37.136 20.162L220.263 795.914zM269.319 775.287h72.743v20.782h-23.355v58.585h-26.036v-58.585h-23.352V775.287zM444.093 814.526c0 26.987-18.189 42.185-41.7 42.185-24.881 0-41.565-15.398-41.565-42.43 0-24.927 16.863-41.122 41.565-41.122C430.756 773.159 444.093 793.543 444.093 814.526zM386.885 814.526c0 10.104 3.079 22.8 15.508 22.8 11.255 0 15.643-9.684 15.643-22.8 0-10.859-4.388-22.291-15.842-22.002C390.407 792.524 386.885 804.444 386.885 814.526zM492.218 826.977v27.677h-26.057v-79.367h37.489c26.457 0 35.188 7.11 35.188 22.531 0 9.197-4.101 16.929-13.34 19.433 8.377 3.079 13.407 5.052 13.407 21.05 0 10.371-.266 13.914 2.813 13.914v2.439H515.35c-.641-1.797-1.306-6.871-1.306-13.895 0-10.391-1.794-13.781-13.914-13.781H492.218zM492.218 809.541h10.26c8.022 0 12.298-1.973 12.298-7.49 0-5.627-4.387-8.309-10.46-8.309h-12.097V809.541zM564.651 854.654v-79.367h64.722v18.455h-38.685v11.388h32.746v18.524h-32.746v12.476h40.235v18.524H564.651z"></path></g><path fill="#DBA12C" d="M213.461 791.437c-.864-2.681-2.481-4.122-4.499-4.85-1.994-.734-4.32-.821-6.846-.467-5.695.798-7.955 2.791-7.556 5.653 1.686 11.741 45.822-1.931 49.853 26.675 2.572 18.281-11.388 29.225-32.991 32.306-20.717 2.878-36.006-7.292-38.532-21.449l24.685-3.457c.909 2.77 2.746 4.632 5.094 5.628 2.305.997 5.098 1.286 7.646.907 6.402-.907 10.369-3.52 9.858-7.266-1.661-11.898-45.71 2.683-49.919-27.386-2.348-16.705 10.876-27.166 30.531-29.933 21.802-3.081 33.325 6.668 37.112 20.183L213.461 791.437zM262.45 770.789h72.786v20.85H311.86v58.559h-26.032v-58.559H262.45V770.789zM437.25 810.027c0 27.009-18.214 42.254-41.702 42.254-24.861 0-41.544-15.442-41.544-42.498 0-24.925 16.883-41.122 41.544-41.122C423.886 768.661 437.25 789.044 437.25 810.027zM380.014 810.027c0 10.17 3.104 22.824 15.534 22.824 11.279 0 15.666-9.684 15.666-22.824 0-10.834-4.388-22.289-15.865-21.935C383.54 788.092 380.014 800.014 380.014 810.027zM485.35 822.502v27.695h-26.032v-79.409h37.511c26.456 0 35.164 7.178 35.164 22.599 0 9.152-4.076 16.839-13.319 19.365 8.376 3.082 13.427 5.118 13.427 21.093 0 10.348-.33 13.871 2.771 13.871v2.481h-26.389c-.62-1.817-1.305-6.867-1.305-13.935 0-10.324-1.729-13.759-13.872-13.759H485.35zM485.35 805.042h10.261c8.039 0 12.363-1.97 12.363-7.466 0-5.649-4.411-8.266-10.481-8.266H485.35V805.042zM557.827 850.197v-79.409h64.72v18.521h-38.708v11.344h32.748v18.525h-32.748v12.451h40.237v18.567H557.827z"></path><path fill="#11405C" d="M123.348,786.829c-1.774,0-3.544-0.798-4.698-2.392c-1.949-2.549-1.439-6.225,1.154-8.198
		c2.302-1.774,231.565-174.931,264.003-223.655c0.374-0.531,0.819-1.019,1.33-1.375c1.75-1.371,17.213-12.717,26.477-3.432
		c5.584,5.406,181.555,151.929,273.796,228.616c2.501,2.06,2.836,5.807,0.773,8.333c-2.103,2.502-5.826,2.813-8.331,0.729
		c-27.473-22.866-268.676-223.453-274.614-229.348c-0.819-0.93-6.073,0.952-10.194,3.877
		c-35.538,51.406-256.687,218.515-266.151,225.628C125.828,786.43,124.59,786.829,123.348,786.829z"></path><path fill="#2F627C" d="M137.086 782.397c0 7.577-6.161 13.717-13.738 13.717-7.578 0-13.739-6.139-13.739-13.717 0-7.578 6.161-13.736 13.739-13.736C130.925 768.661 137.086 774.819 137.086 782.397zM696.355 782.397c0 7.577-6.14 13.717-13.718 13.717-7.577 0-13.738-6.139-13.738-13.717 0-7.578 6.16-13.736 13.738-13.736C690.215 768.661 696.355 774.819 696.355 782.397zM423.29 575.184c0 11.478-9.33 20.826-20.828 20.826-11.545 0-20.852-9.349-20.852-20.826 0-11.5 9.307-20.848 20.852-20.848C413.96 554.337 423.29 563.684 423.29 575.184z"></path><g opacity=".5"><path fill="#DBA12C" d="M279.089 1029.826c0 33.037-22.244 51.715-51.005 51.715-30.489 0-50.872-18.923-50.872-51.981 0-30.51 20.65-50.364 50.872-50.364C262.783 979.196 279.089 1004.19 279.089 1029.826zM209.05 1029.826c0 12.409 3.792 27.963 19.035 27.963 13.781 0 19.189-11.922 19.189-27.963 0-13.227-5.408-27.253-19.433-26.9C213.374 1002.926 209.05 1017.507 209.05 1029.826zM305.679 1078.97v-97.181h46.817c27.963 0 41.478 12.829 41.478 32.75 0 20.98-12.428 34.211-40.391 34.211h-16.02v30.22H305.679zM350.767 1026.037c7.424 0 12.854-2.99 12.854-11.366 0-9.018-10.303-10.216-17.038-10.216h-9.019v21.582H350.767zM419.302 1078.97v-97.181h79.276v22.667h-47.415v13.872h40.082v22.688h-40.082v15.243h49.276v22.712H419.302zM593.944 1034.812l-1.222-22.136v-30.888h30.535v97.181h-29.825l-34.675-52.933 1.197 22.157v30.776H529.42v-97.181h29.846L593.944 1034.812z"></path></g><g><path fill="#DBA12C" d="M273.705 1027.234c0 33.057-22.247 51.736-51.004 51.736-30.534 0-50.895-18.92-50.895-51.981 0-30.51 20.65-50.364 50.895-50.364C257.354 976.626 273.705 1001.576 273.705 1027.234zM203.645 1027.234c0 12.406 3.768 27.918 19.056 27.918 13.736 0 19.165-11.853 19.165-27.918 0-13.206-5.429-27.299-19.452-26.834C207.944 1000.401 203.645 1014.937 203.645 1027.234zM300.249 1076.333v-97.137h46.886c27.918 0 41.411 12.829 41.411 32.816 0 20.894-12.409 34.099-40.348 34.099h-16.065v30.221H300.249zM345.34 1023.467c7.421 0 12.851-2.991 12.851-11.321 0-9.064-10.28-10.282-17.039-10.282h-9.018v21.603H345.34zM413.915 1076.333v-97.137h79.235v22.667h-47.393v13.937h40.104v22.644h-40.104v15.245h49.277v22.643H413.915zM588.537 1032.241l-1.22-22.136v-30.909h30.531v97.137h-29.843l-34.677-52.866 1.218 22.092v30.774h-30.531v-97.137h29.823L588.537 1032.241z"></path></g></g><g><path fill="#D7A28E" d="M-33.205,676.459l-3.777,60.524c0,0-7.331,18.034-20.3,11.58c-12.97-6.452-24.416-23.594-24.416-23.594
			l11.869-55.978L-33.205,676.459z"></path><path fill="#C18C7C" d="M-15.417,639.969c0,0,9.797,14.202,8.542,17.802c-1.255,3.6-7.739,3.182-7.739,3.182L-15.417,639.969z"></path><path fill="#D7A28E" d="M-87.263,630.824c0,0,0.069,3.806,0.457,9.53c-2.262,0.082,19.892,57.9,34.29,58.446
			c12.482,0.474,28.442,0.102,34.906-11.996c7.279-13.623,4.146-40.44,1.565-65.653C-16.045,621.15-42.328,585.608-87.263,630.824z"></path><path fill="#DCF4E6" d="M-27.139,670.925c-0.092-0.372,15.253-3.974,15.244-2.196c-0.01,1.778-2.157,7.844-3.227,7.948
			C-16.193,676.782-25.327,678.246-27.139,670.925z"></path><path fill="#11405C" d="M-25.968 641.922c-.085 2.741 1.29 5.008 3.07 5.063 1.781.055 3.292-2.123 3.376-4.864.085-2.741-1.289-5.007-3.07-5.063C-24.371 637.003-25.883 639.181-25.968 641.922zM-20.201 629.071c0 0 .575 2.13.145 2.745-.43.614-2.813-.088-5.288 1.464-2.474 1.552-4.661 2.733-4.661 2.733s-2.188-2.335-.63-4.311C-29.076 629.724-20.503 627.155-20.201 629.071z"></path><path fill="#DCF4E6" d="M-22.361,640.753c0.049,0.926,0.839,1.638,1.766,1.588c0.926-0.049,1.638-0.839,1.588-1.766
				c-0.049-0.926-0.839-1.638-1.766-1.588C-21.699,639.036-22.41,639.827-22.361,640.753z"></path><path fill="#C18C7C" d="M-19.518,689.713c0,0-7.668,10.756-15.025,8.182l-0.219,16.588l-21.265-21.126
			C-56.026,693.357-31.031,696.077-19.518,689.713z"></path><path fill="#11405C" d="M-126.567,619.126c0,0-11.766-12.341-10.235-22.893c1.532-10.551,8.038-18.247,17.316-17.603
			C-140.152,599.645-126.567,619.126-126.567,619.126z"></path><path fill="#11405C" d="M-6.903,583.338c7.142-21.614-8.355-32.543-23.852-22.411c-1.074,0.703-1.962,1.57-2.929,2.37
			c-0.374-1.516-0.945-2.998-1.847-4.378c-4.298-6.575-13.109-8.417-19.683-4.119c-0.486,0.318-0.891,0.708-1.325,1.071
			c-7.326-1.963-15.395-1.013-22.241,3.463c-5.175,3.383-8.752,8.234-10.726,13.625c-7.281-0.277-14.715,1.595-21.279,5.887
			c-16.839,11.012-19.354,49.55,11.882,58.211c-24.142,22.117,14.59,54.648,30.676,47.349c0.098,0,0.167,0.025,0.266,0.025
			c41.962,0,25.651-52.765,25.651-52.765c-0.062-0.176-0.202-0.339-0.279-0.514c6.736,2.677,20.942-4.465,28.494-8.77
			c6.851,0.353,13.86-1.29,20.041-5.332C21.443,606.914,3.231,598.836-6.903,583.338z"></path><g><polygon fill="#D7A28E" points="-139.923 1700.849 -150.504 1797.015 -189.444 1783.055 -193.628 1694.826"></polygon><path fill="#FFC439" d="M-194.106,1756.139c-6.053-4.483-5.023,67.199,0,69.113c5.022,1.913,133.082,5.255,144.919-0.005
						c11.838-5.262,12.555-29.101-7.174-33.144c-19.729-4.043-61.097-11.24-73.652-26.995c0,0-8.685-21.026-11.902-23
						c-3.217-1.973-4.303,14.031-4.303,14.031S-179.578,1766.901-194.106,1756.139z"></path><path fill="#11405C" d="M-69.131,1789.582c0.28,0.779-1.23,1.856-2.728,3.912c-1.508,2.085-2.827,5.475-3.724,9.605
							c-1.734,8.305-1.865,15.702-3.372,15.827c-1.345,0.198-3.714-7.343-1.758-16.956c1.002-4.75,3.367-9.056,6.239-11.114
							C-71.562,1788.813-69.277,1789.008-69.131,1789.582z"></path><path fill="#11405C" d="M-198.268 1813.533c-.142 2.511-.179 13.652 4.342 14.539 4.52.886 149.17 1.983 150.121 0 .951-1.984 1.263-9.357 1.739-10.768C-41.592 1815.892-198.268 1813.533-198.268 1813.533zM-120.032 1786.54c-3.455-3.91 4.215-13.003 6.456-12.376C-111.333 1774.792-116.625 1790.397-120.032 1786.54zM-107.566 1790.576c-3.456-3.91 4.215-13.003 6.456-12.376C-98.867 1778.828-104.159 1794.432-107.566 1790.576zM-94.58 1793.804c-3.456-3.91 4.215-13.003 6.456-12.375C-85.881 1782.056-91.172 1797.66-94.58 1793.804z"></path><circle cx="-160.925" cy="1791.114" r="12.376" fill="#DBA12C"></circle><path fill="#11405C" d="M-22.955,1044.036c0,0-103.101,661.318-105.661,682.144c-2.561,20.826-74.296,0.682-74.296,0.682
				l9.284-483.827c0,0-18.685-142.23-10.731-223.323C-170.654,988.767-22.955,1044.036-22.955,1044.036z"></path><path fill="#D7A28E" d="M340.357,546.337c7.134-0.83,7.968,6.431,7.968,6.431l2.558,22.205l49.394-27.549
				c0,0,5.043,3.562,2.945,7.352c-0.96,1.734-23.783,17.715-23.783,17.715l32.997-18.375c0,0,4.866,4.577,1.998,7.263
				c-1.371,1.285-28.727,22.932-28.727,22.932l30.368-17.676c0,0,2.24,6.92,1.183,7.918c-5.451,5.147-26.497,21.519-26.497,21.519
				l21.658-13.768c0,0,4.066,4.866-0.407,7.867c-5.356,3.595-29.238,23.818-38.573,27.785
				c-12.227,5.197-43.898,29.948-43.898,29.948s-23.685-36.984-25.882-39.912c4.46-2.859,20.24-13.282,20.24-13.282
				C331.406,580.382,331.331,567.07,340.357,546.337z"></path><path fill="#C18C7C" d="M374.725 574.888c.301.512 3.754-.953 7.714-3.273 3.96-2.32 6.928-4.616 6.627-5.129-.3-.513-3.755.953-7.714 3.272C377.392 572.079 374.425 574.375 374.725 574.888zM380.506 587.235c.323.498 3.516-.998 7.132-3.343 3.616-2.344 6.285-4.649 5.961-5.148-.323-.498-3.516.998-7.132 3.343C382.852 584.432 380.183 586.737 380.506 587.235zM384.944 599.225c.309.507 3.041-.59 6.102-2.451 3.062-1.861 5.293-3.782 4.985-4.289-.309-.508-3.041.59-6.102 2.451C386.867 596.797 384.635 598.717 384.944 599.225z"></path><path fill="#C18C7C" d="M382.714 594.446c-.39.512.889 1.927 1.706 3.834.871 1.897.994 3.705 1.562 3.84.577.207 1.562-2.106.405-4.71C385.216 594.817 382.984 593.986 382.714 594.446zM378.443 583.209c-.389.511.889 1.926 1.706 3.834.872 1.897.994 3.705 1.563 3.84.577.207 1.562-2.106.404-4.71C380.945 583.58 378.713 582.749 378.443 583.209zM373.081 571.507c-.39.512.889 1.927 1.706 3.834.871 1.897.993 3.705 1.563 3.84.577.207 1.562-2.106.405-4.71C375.583 571.879 373.351 571.047 373.081 571.507z"></path><g><polygon fill="#D7A28E" points="5.351 1709.482 21.598 1789.703 56.254 1797.163 60.589 1700.703"></polygon><path fill="#FFC439" d="M11.965,1756.139c-6.053-4.483-5.023,67.199,0,69.113c5.022,1.913,133.082,5.255,144.919-0.005
					c11.838-5.262,12.555-29.101-7.174-33.144c-19.729-4.043-61.097-11.24-73.652-26.995c0,0-8.685-21.026-11.902-23
					c-3.217-1.973-4.303,14.031-4.303,14.031S26.493,1766.901,11.965,1756.139z"></path><path fill="#11405C" d="M136.94,1789.582c0.28,0.779-1.23,1.856-2.728,3.912c-1.508,2.085-2.827,5.475-3.724,9.605
						c-1.734,8.305-1.865,15.702-3.372,15.827c-1.345,0.198-3.714-7.343-1.758-16.956c1.003-4.75,3.367-9.056,6.239-11.114
						C134.508,1788.813,136.793,1789.008,136.94,1789.582z"></path><path fill="#11405C" d="M7.802 1813.533c-.142 2.511-.179 13.652 4.342 14.539 4.52.886 149.17 1.983 150.121 0 .951-1.984 1.263-9.357 1.739-10.768C164.479 1815.892 7.802 1813.533 7.802 1813.533zM86.039 1786.54c-3.455-3.91 4.215-13.003 6.456-12.376C94.737 1774.792 89.446 1790.397 86.039 1786.54zM98.505 1790.576c-3.456-3.91 4.215-13.003 6.456-12.376C107.203 1778.828 101.912 1794.432 98.505 1790.576zM111.491 1793.804c-3.456-3.91 4.215-13.003 6.456-12.375C120.19 1782.056 114.899 1797.66 111.491 1793.804z"></path><circle cx="45.145" cy="1791.114" r="12.376" fill="#DBA12C"></circle></g><path fill="#11405C" d="M23.623,1024.671c0,0,45.966,667.726,48.082,688.602c2.116,20.877-72.299,17.125-72.299,17.125
			l-158.068-689.258L23.623,1024.671z"></path><polygon fill="#2F627C" points="-82.903 1044.398 -85.376 1115.568 -116.847 1134.486 -143.45 1117.292 -145.008 1043.896"></polygon><polygon fill="#2F627C" points="-161.555 1045.304 -165.954 1107.719 -185.616 1122.463 -200.878 1105.753 -198.808 1041.138"></polygon><polygon fill="#2F627C" points="-158.662 1130.646 -113.656 1229.649 -69.249 1431.026 -119.539 1239.689"></polygon><path fill="#FFC439" d="M-250.506,868.076c0,21.747,7.447,34.316,25.922,29.424c14.396-3.711,25.574-6.693,38.207-11.295
			c-5.33,37.394-34.718,122.75-19.141,160.613c36.856,24.984,230.172,36.653,240.016,0.442c2.074-7.841-10.839-12.173-10.876-22.589
			c-0.202-55.613-10.317-146.468,11.492-193.212l0.373-0.367c0.372,0,0.841,0,0.841-0.442c7.42-2.022,16.456-5.797,26.672-10.721
			c56.746-27.477,212.007-91.842,275.687-173.393c16.783-21.493-28.176-49.423-28.176-49.423
			C192.963,674.047,16.929,709.474,16.929,709.474s-47.26-6.019-98.628-7.377c-12.312-0.325-64.262,15.997-77.481,23.129
			C-214.288,754.96-250.506,836.856-250.506,868.076z"></path><path fill="#DBA12C" d="M-186.376 886.205c0 0 13.804-39.322 10.458-39.322-3.347 0-67.373 49.715-56.067 51.63C-220.679 900.428-186.376 886.205-186.376 886.205zM-181.217 925.997c0 0-3.347 76.135-2.928 94.96.418 18.824-.856 29.283-5.239 9.621C-193.767 1010.918-181.217 925.997-181.217 925.997zM-6.764 1039.73c-3.461 3.99 1.406-137.211 0-161.473-1.406-24.263-19.678-28.9-15.98-45.406 3.698-16.507 138.399-65.869 156.247-75.909s14.502-44.064 17.291-35.697c2.789 8.366 4.462 29.536 11.713 28.712 7.251-.824 126.389-47.084 178.347-121.563 0 0 8.884 11.65 4.042 18.59-41.693 59.758-189.361 143.702-309.781 184.473 0 0-28.783 18.947-29.341 29.387S5.816 1025.228-6.764 1039.73z"></path></g></g><g><polygon fill="#91C4F6" points="739.549 1814.976 443.692 1762.232 500.131 1335.676 758.814 1358.201"></polygon><polygon fill="#549BEC" points="758.814 1358.201 770.561 1368.261 779.166 1359.973 802.459 1787.428 779.568 1792.661 739.549 1814.976"></polygon><path fill="#549BEC" d="M566.357 1403.155c0 6.178-3.577 11.186-7.99 11.186s-7.99-5.008-7.99-11.186c0-6.178 3.577-11.186 7.99-11.186S566.357 1396.976 566.357 1403.155zM666.595 1407.996c0 5.991-3.469 10.847-7.748 10.847-4.279 0-7.748-4.856-7.748-10.847 0-5.99 3.469-10.847 7.748-10.847C663.125 1397.15 666.595 1402.006 666.595 1407.996z"></path><path fill="#CDEEFF" d="M553.946,1402.881c-2.968,17.434-5.936,34.869-8.903,52.304c-2.55,14.977-5.848,30.091-6.396,45.315
				c-0.987,27.374,12.276,50.487,37.608,61.699c12.85,5.688,27.062,7.704,41.034,7.544c10.465-0.119,22.779-1.026,29.413-10.32
				c7.52-10.535,0.015-21.132-7.385-29.289c-8.658-9.543-28.951-17.508-28.164-32.282c0.539-10.117,8.387-17.741,14.874-24.646
				c5.337-5.681,10.395-11.584,15.036-17.85c8.361-11.287,21.848-28.284,20.181-43.254c-0.431-3.867-6.549-3.91-6.114,0
				c1.415,12.707-10.541,27.946-17.669,37.869c-7.491,10.427-17.109,18.916-24.793,29.11c-5.782,7.671-9.793,17.74-6.389,27.29
				c3.406,9.553,13.127,14.316,20.511,20.32c5.195,4.225,10.222,9.237,13.858,14.882c6.077,9.434,1.129,17.641-8.883,20.602
				c-12.525,3.703-28.948,1.684-41.321-1.52c-28.275-7.323-46.385-29.217-45.736-58.729c0.345-15.677,3.877-31.291,6.501-46.701
				c2.878-16.906,5.756-33.812,8.634-50.719C560.496,1400.658,554.606,1399.004,553.946,1402.881L553.946,1402.881z"></path><g><polygon fill="#009444" points="859.192 1826.238 1087.636 1785.512 1044.057 1456.15 844.316 1473.542"></polygon><polygon fill="#097C3A" points="844.316 1473.542 835.246 1481.309 828.602 1474.91 810.617 1804.967 828.292 1809.007 859.192 1826.238"></polygon><path fill="#097C3A" d="M992.921 1508.253c0 4.77 2.762 8.637 6.169 8.637s6.17-3.867 6.17-8.637c0-4.771-2.762-8.637-6.17-8.637S992.921 1503.482 992.921 1508.253zM915.523 1511.992c0 4.626 2.679 8.375 5.982 8.375 3.304 0 5.982-3.75 5.982-8.375s-2.678-8.376-5.982-8.376C918.202 1503.616 915.523 1507.366 915.523 1511.992z"></path><path fill="#CDEEFF" d="M1002.504,1508.042c2.292,13.462,4.583,26.924,6.874,40.386c1.969,11.564,4.516,23.234,4.939,34.989
				c0.761,21.137-9.479,38.983-29.039,47.641c-9.922,4.392-20.896,5.949-31.684,5.825c-8.081-0.093-17.589-0.792-22.711-7.969
				c-5.806-8.134-0.011-16.317,5.703-22.615c6.685-7.368,22.354-13.519,21.747-24.927c-0.416-7.811-6.476-13.698-11.485-19.03
				c-4.121-4.386-8.027-8.945-11.61-13.783c-6.456-8.715-16.87-21.84-15.582-33.398c0.332-2.986,5.056-3.02,4.72,0
				c-1.092,9.812,8.14,21.577,13.643,29.24c5.784,8.051,13.211,14.605,19.144,22.477c4.465,5.923,7.562,13.698,4.933,21.071
				c-2.63,7.377-10.136,11.054-15.837,15.691c-4.011,3.262-7.893,7.132-10.7,11.492c-4.692,7.285-0.872,13.622,6.859,15.907
				c9.671,2.859,22.352,1.3,31.905-1.174c21.833-5.654,35.816-22.559,35.315-45.346c-0.266-12.105-2.994-24.161-5.02-36.06
				c-2.222-13.054-4.444-26.108-6.666-39.162C997.446,1506.325,1001.994,1505.048,1002.504,1508.042L1002.504,1508.042z"></path></g><g><polygon fill="#FFC439" points="251.818 1609.082 463.209 1564.171 674.601 1595.187 466.932 1666.8"></polygon><polygon fill="#DBA12C" points="472.678 1882.045 678.418 1831.806 674.601 1595.187 466.204 1639.53"></polygon><polygon fill="#CDEEFF" points="346.407 1588.986 412.549 1575.326 599.889 1609.859 602.164 1657.402 576.129 1665.448 571.301 1657.697 568.774 1668.685 548.895 1675.558 548.233 1624.64" opacity=".5"></polygon><polygon fill="#CDEEFF" points="571.487 1858.002 571.368 1821.089 584.131 1818.611 586.941 1823.12 588.411 1816.809 621.795 1807.337 625.71 1844.729" opacity=".5"></polygon><polygon fill="#FFC439" points="251.818 1609.082 258.612 1852.138 472.678 1882.045 466.204 1639.53"></polygon><path fill="#DBA12C" d="M251.818,1609.082l214.386,30.448c0,0-66.887,7.869-111.307,0
				C310.477,1631.66,251.818,1609.082,251.818,1609.082z"></path><g><polygon fill="#FFC439" points="548.233 1666.069 715.493 1630.533 882.752 1655.074 718.438 1711.737"></polygon><polygon fill="#DBA12C" points="722.984 1882.045 885.771 1842.294 882.752 1655.074 717.861 1690.16"></polygon><polygon fill="#CDEEFF" points="623.075 1650.168 675.407 1639.36 823.637 1666.683 825.437 1704.301 804.838 1710.667 801.018 1704.534 799.018 1713.228 783.29 1718.666 782.766 1678.379" opacity=".5"></polygon><polygon fill="#CDEEFF" points="801.165 1863.022 801.07 1833.815 811.169 1831.854 813.393 1835.422 814.556 1830.428 840.97 1822.934 844.068 1852.52" opacity=".5"></polygon><polygon fill="#FFC439" points="548.233 1666.069 553.609 1858.382 722.984 1882.045 717.861 1690.16"></polygon><path fill="#DBA12C" d="M548.233,1666.069l169.628,24.091c0,0-52.923,6.226-88.069,0
				C594.646,1683.934,548.233,1666.069,548.233,1666.069z"></path></g></g></g><g><path fill="#FFC439" d="M1061.682,557.305l-84.892,24.264l-1.202,39.229l46.27,162.005l11.507-3.242l84.86-24.265l11.481-3.289
				l-46.316-161.979L1061.682,557.305z M1026.897,596.375c-4.978,1.425-10.153-1.5-11.596-6.456
				c-1.414-5.014,1.44-10.241,6.471-11.677c4.955-1.412,10.222,1.459,11.67,6.474
				C1034.823,589.728,1031.928,594.939,1026.897,596.375z"></path><path fill="#DBA12C" d="M1033.876,642.473l-1.909-6.652l11.521-3.271l1.955,6.625c10.587-0.761,17.924,5.452,21.369,17.641
					l0.829,2.795l-13.373,3.838l-1.086-3.71c-1.816-6.439-5.09-8.157-9.551-6.849c-4.488,1.263-6.355,4.44-4.548,10.864
					c5.282,18.451,33.166,11.464,40.475,37.194c3.449,12.145,0.424,21.506-8.987,26.396l1.888,6.561l-11.559,3.314l-1.896-6.576
					c-10.725,0.841-18.056-5.52-21.533-17.709l-1.718-6.168l13.289-3.769l2.004,7.027c1.861,6.412,5.338,7.95,9.8,6.642
					c4.511-1.276,6.691-4.39,4.852-10.816c-5.276-18.496-33.151-11.493-40.448-37.149
					C1021.781,656.628,1024.599,647.489,1033.876,642.473z"></path><path fill="#F2CD33" d="M-458.348,348.274l-33.507,172.528c0,0,108.527,54.905,112.482,50.933
			c3.954-3.974,72.462-167.117,72.462-167.117L-458.348,348.274z"></path><path fill="#DBA12C" d="M-402.801,424.395c7.545,3.279,10.468,10.026,5.082,18.073c-5.306,8.081-13.742,9.892-21.288,6.613
				c-7.625-3.314-10.547-10.061-5.241-18.142C-418.862,422.893-410.347,421.116-402.801,424.395z M-377.809,436.2l13.106,5.695
				l-64.809,38.314l-13.105-5.695L-377.809,436.2z M-414.795,435.047c-2.224,3.378-1.836,5.529,0.547,6.565
				c2.383,1.035,4.935,0.162,7.158-3.216c2.223-3.378,1.756-5.563-0.626-6.599C-410.1,430.761-412.572,431.669-414.795,435.047z
				 M-388.155,467.398c7.546,3.279,10.389,9.992,5.003,18.039c-5.306,8.082-13.742,9.892-21.288,6.613
				c-7.545-3.279-10.468-10.026-5.083-18.073C-404.216,465.895-395.701,464.119-388.155,467.398z M-400.229,478.016
				c-2.224,3.378-1.836,5.528,0.626,6.598c2.304,1.001,4.856,0.127,7.079-3.25s1.756-5.563-0.547-6.564
				C-395.454,473.764-398.006,474.637-400.229,478.016z"></path><g><path fill="#F2CD33" d="M808.093-169.488l76.266,184.593c0,0,137.301-15.894,138.563-22.138
			c1.263-6.245-35.935-203.859-35.935-203.859L808.093-169.488z"></path><path fill="#DBA12C" d="M908.438-132.086c9.209-1.615,16.206,2.952,16.138,13.956c0.029,10.986-6.836,17.987-16.046,19.603
				c-9.306,1.632-16.302-2.936-16.331-13.922C892.266-123.453,899.228-130.47,908.438-132.086z M939.531-136.541l15.995-2.807
				L918.06-62.429l-15.995,2.806L939.531-136.541z M903.734-114.474c0.007,4.596,1.721,6.393,4.63,5.883
				c2.908-0.51,4.781-2.937,4.773-7.532c-0.007-4.595-1.818-6.375-4.726-5.865C905.503-121.478,903.727-119.069,903.734-114.474z
				 M949.256-100.477c9.209-1.615,16.109,2.969,16.041,13.973c0.029,10.986-6.837,17.987-16.047,19.602
				c-9.208,1.616-16.205-2.952-16.138-13.955C933.084-91.845,940.046-98.861,949.256-100.477z M944.455-82.848
				c0.007,4.596,1.721,6.393,4.726,5.866c2.812-0.493,4.684-2.92,4.677-7.515c-0.007-4.595-1.818-6.375-4.629-5.882
				C946.32-89.869,944.448-87.443,944.455-82.848z"></path></g></g></svg>